<?xml version="1.0" encoding="UTF-8"?>
<!DOCTYPE svg PUBLIC "-//W3C//DTD SVG 1.1//EN" "http://www.w3.org/Graphics/SVG/1.1/DTD/svg11.dtd">
<!-- Creator: CorelDRAW X7 -->
<svg xmlns="http://www.w3.org/2000/svg" xml:space="preserve" width="6.9924mm" height="5.8937mm" version="1.1" style="shape-rendering:geometricPrecision; text-rendering:geometricPrecision; image-rendering:optimizeQuality; fill-rule:evenodd; clip-rule:evenodd"
viewBox="0 0 699 589"
 xmlns:xlink="http://www.w3.org/1999/xlink">
 <defs>
  <style type="text/css">
   <![CDATA[
    .fil0 {fill:black}
   ]]>
  </style>
 </defs>
 <g id="Layer_x0020_1">
  <metadata id="CorelCorpID_0Corel-Layer"/>
  <path class="fil0" d="M606 227c1,-3 129,-75 83,108 -32,130 -102,135 -216,200 -43,12 -42,63 -111,53 -7,-1 -21,-8 -17,-10 60,-34 99,-64 142,-107 4,-5 12,-21 14,-24 52,-52 86,-90 103,-107 21,-20 38,-47 2,-113z"/>
  <path class="fil0" d="M486 458c-57,13 -92,-13 -144,-25 -27,-7 -53,-12 -81,-23 -59,-23 -138,-66 -128,-97 7,-21 -56,-45 -59,-87l-42 24c-87,49 28,130 68,138 106,19 145,59 226,63 -83,1 -170,-50 -196,-45 -45,9 48,167 202,163 40,-1 124,-78 154,-111z"/>
  <path class="fil0" d="M600 232c43,73 9,98 1,94 -21,-11 -45,72 -156,60 -50,8 -106,19 -148,12 -115,-19 -179,-73 -91,-51 43,10 172,24 253,12 63,-10 109,-78 141,-127z"/>
  <path class="fil0" d="M598 332c-6,-4 -122,63 -151,59 -118,22 -134,24 -248,-15 102,52 123,36 201,68 84,34 112,-24 179,-86l19 -26z"/>
  <path class="fil0" d="M514 83c48,-23 85,30 87,71 5,73 -62,173 -125,190 -16,5 59,-113 67,-126 35,-60 -20,-46 -20,-55 4,-46 -12,-79 -9,-80z"/>
  <path class="fil0" d="M519 176c-2,-9 44,3 21,24 -103,95 -186,107 -183,107 43,-3 95,-34 130,-58 10,-6 54,-40 53,-38 -6,22 -68,110 -83,131 -10,13 -130,11 -157,9 -148,-15 -168,-158 -155,-139 36,52 117,94 213,111 7,1 70,-2 72,-7 4,-10 -62,1 -72,0 -7,-2 -14,-5 -13,-10 5,-17 188,-69 174,-130z"/>
  <path class="fil0" d="M136 224c-2,-15 15,-28 1,-49 -3,-4 -6,-11 -2,-17 12,-20 15,-27 35,-61 2,-3 2,-3 -6,1 -64,29 -132,72 -71,151 12,16 40,37 46,55 2,4 6,36 14,33 26,-9 92,9 86,6 -52,-26 -91,-60 -103,-119z"/>
  <path class="fil0" d="M339 314c0,1 -203,-52 -194,-139 3,-23 50,-18 67,-15 2,1 8,75 8,75 -5,6 -44,-35 -49,-48 0,-1 7,31 57,60 28,17 56,32 84,48 11,7 -75,-51 -74,-51 0,-1 28,-5 52,-3 55,3 170,37 155,-67 0,-5 1,-28 -18,-50 -6,-6 59,15 57,45 -2,24 -26,37 -29,57 -4,39 -122,55 -116,88z"/>
  <path class="fil0" d="M221 166c7,-106 134,-39 135,-39 3,-1 -63,-32 -60,-35 28,-28 142,-33 178,-22 43,13 47,99 36,124 -5,11 -42,45 -54,49 -4,1 31,-59 32,-60 10,-27 -20,-59 -43,-62 -19,-3 -23,-13 -29,-15 -12,-6 19,40 18,54 0,0 -19,-11 -40,-17 -40,-11 -61,-8 -94,11 -26,15 -53,-7 -61,41 -6,36 39,17 82,29 13,4 78,6 75,-12 -5,-24 -62,-42 -81,-47 -3,-1 60,2 75,29 0,1 0,-18 -46,-29 -15,-3 -31,-4 -33,-6 -4,-3 21,-14 49,-15 26,-2 54,7 70,24 15,15 8,53 -13,64 -43,23 -112,-2 -150,2 -2,0 -40,2 -40,1 -1,-2 -8,-40 -6,-69z"/>
  <path class="fil0" d="M178 97c57,-93 113,-73 200,-49 22,6 -43,-13 -41,-20 27,-73 122,16 145,37 5,3 4,3 -2,2 -39,-13 -77,-12 -117,-5 -14,2 -74,13 -76,33 -1,1 -56,-5 -73,56 -2,6 -44,-4 -71,8 0,0 32,-57 35,-62z"/>
  <path class="fil0" d="M247 195c1,-34 43,-33 67,-22 14,6 52,14 60,24 32,35 -79,21 -81,11 -1,-6 19,-2 22,-2 8,2 42,8 46,-4 0,0 -37,-1 -42,-5 -32,-25 -21,-7 -39,-5 -4,0 -4,-8 -5,-10 -3,-5 4,10 -14,10 -1,0 -6,8 0,8 2,0 25,-4 23,3 -3,9 -37,12 -37,-8z"/>
 </g>
</svg>
